<svg xmlns="http://www.w3.org/2000/svg" width="90" height="90" viewBox="0 0 90 90">
  <path id="bx-store-alt_1_" data-name="bx-store-alt(1)" d="M92,16.211C92,8.376,85.943,2,78.5,2h-63C8.057,2,2,8.376,2,16.211v13.41A20.815,20.815,0,0,0,6.5,42.628v39.9A9.255,9.255,0,0,0,15.5,92h63a9.255,9.255,0,0,0,9-9.474v-39.9A20.8,20.8,0,0,0,92,29.616Zm-9,0v13.41c0,5.4-3.82,10-8.51,10.265l-.49.009a9.255,9.255,0,0,1-9-9.474V11.474H78.5A4.628,4.628,0,0,1,83,16.211ZM38,11.474H56V30.421a9.255,9.255,0,0,1-9,9.474,9.255,9.255,0,0,1-9-9.474ZM11,16.211a4.628,4.628,0,0,1,4.5-4.737H29V30.421a9.255,9.255,0,0,1-9,9.474l-.491-.014C14.82,39.625,11,35.021,11,29.621ZM38,82.526V68.316H56V82.526Zm27,0V68.316a9.255,9.255,0,0,0-9-9.474H38a9.255,9.255,0,0,0-9,9.474V82.526H15.5V48.748a16.61,16.61,0,0,0,3.542.592,17.528,17.528,0,0,0,14.458-6.4,17.39,17.39,0,0,0,27,0,17.528,17.528,0,0,0,14.459,6.4,16.563,16.563,0,0,0,3.541-.592V82.526Z" transform="translate(-2 -2)" fill="#EEAD0E" opacity="0.8"/>
</svg>
