<?xml version="1.0" standalone="no"?>
<svg viewBox="0 0 200 200" xmlns="http://www.w3.org/2000/svg">
  <path fill="#02112E" d="M40.4,-76.5C49.2,-65,50.9,-47.7,56.5,-34C62.1,-20.3,71.6,-10.1,71.7,0.1C71.9,10.3,62.7,20.6,57.1,34.3C51.4,47.9,49.4,65,40.5,71.5C31.6,78,15.8,74.1,1.9,70.8C-12,67.6,-24,65,-34.3,59.2C-44.5,53.4,-52.9,44.4,-61.8,34C-70.7,23.6,-80.1,11.8,-81,-0.5C-82,-12.9,-74.5,-25.8,-64.4,-34.2C-54.3,-42.5,-41.7,-46.4,-30.5,-56.6C-19.4,-66.7,-9.7,-83,3.1,-88.3C15.8,-93.7,31.7,-88,40.4,-76.5Z" transform="translate(100 100)" />
</svg>
