<svg xmlns="http://www.w3.org/2000/svg" width="1642.527" height="1642.418" viewBox="0 0 1642.527 1642.418">
  <path id="blob" d="M844.273,6.776C911.3,87.4,924.249,208.689,966.9,304.739S1081.917,472.3,1082.679,543.81c1.523,71.511-68.551,143.723-111.205,239.773-43.416,95.348-58.649,215.235-126.439,260.806s-188.135,18.228-294.009-4.908C445.152,1017.046,353.75,998.818,275.3,958.155,197.606,917.491,133.624,854.393,65.835,781.48S-73.553,625.838-80.408,539.6C-88.025,452.669-30.9,362.228,46.031,303.337c76.93-58.19,172.9-85.533,258.21-157.044C388.787,75.482,462.671-38.8,560.166-75.953,656.9-113.812,778.006-73.85,844.273,6.776Z" transform="matrix(0.719, 0.695, -0.695, 0.719, 800.931, 121.325)" fill="#02112e"/>
</svg>
