<svg id="about-blob" xmlns="http://www.w3.org/2000/svg" viewBox="0 0 435.24 416.88"><title>blob(1)</title><path id="blob" d="M323.32,17.33c24.9,11.82,37.23,51,42.51,86.2,5.29,34.91,3.78,65.8,13.09,102.32,9.05,36.52,29.18,79,20.88,108.22-8.31,29.54-45,46.19-79.25,60.16-34.46,14-66.16,25-98.36,25.24-31.94.27-64.14-10.2-78.23-36.52-14.34-26.32-10.32-68.21-36.23-98-25.65-29.81-81-47.27-86.53-68.21-5.54-20.68,39-44.85,72.7-59.89,34-15,56.85-20.68,76.47-36,19.62-15,36-39.75,62.89-59.89C260.43,20.82,298.16,5.51,323.32,17.33Z" fill="#02112e"/></svg>